<svg width="54" height="27" viewBox="0 0 54 27" fill="none" xmlns="http://www.w3.org/2000/svg">
<path d="M5.784 26.392C5.37867 26.456 4.888 26.4453 4.312 26.36C3.736 26.296 3.11733 26.1787 2.456 26.008C2.11467 25.9013 1.86933 25.7733 1.72 25.624C1.592 25.4747 1.368 25.1973 1.048 24.792C0.834667 24.472 0.696 24.1093 0.632 23.704C0.589333 23.2987 0.642667 22.936 0.792 22.616C0.962667 22.296 1.24 22.104 1.624 22.04C1.79467 21.9973 1.99733 22.04 2.232 22.168C2.488 22.2747 2.75467 22.4133 3.032 22.584C3.48 22.84 3.96 23.096 4.472 23.352C4.984 23.6293 5.45333 23.736 5.88 23.672C6.17867 23.608 6.53067 23.5653 6.936 23.544C7.36267 23.544 7.768 23.512 8.152 23.448C8.55733 23.384 8.87733 23.2667 9.112 23.096C10.2427 22.328 11.0853 21.72 11.64 21.272C12.1947 20.8027 12.472 20.568 12.472 20.568C12.5147 20.4827 12.5893 20.4187 12.696 20.376C12.824 20.312 12.9733 20.248 13.144 20.184C13.272 20.056 13.4747 19.8533 13.752 19.576C14.0293 19.2773 14.296 18.9893 14.552 18.712C14.8293 18.4347 15 18.2747 15.064 18.232C15.1067 18.04 15.1493 17.8907 15.192 17.784C15.2347 17.656 15.256 17.528 15.256 17.4C15.4267 17.2293 15.6507 16.8773 15.928 16.344C16.2267 15.7893 16.5253 15.1813 16.824 14.52C17.1227 13.8373 17.336 13.2187 17.464 12.664C17.7413 11.4907 17.8373 10.424 17.752 9.464C17.6667 8.504 17.4213 7.64 17.016 6.872C16.6107 6.104 16.0667 5.432 15.384 4.856C15.1493 4.664 14.8293 4.46133 14.424 4.248C14.0187 4.01333 13.6027 3.8 13.176 3.608C12.7493 3.39467 12.3653 3.23466 12.024 3.128C11.704 3.02133 11.512 2.97867 11.448 3C11.3627 3.02133 11.192 3.352 10.936 3.992C10.7013 4.61067 10.4027 5.41067 10.04 6.392C9.69867 7.37333 9.32533 8.42933 8.92 9.56C8.536 10.6693 8.16267 11.7253 7.8 12.728C7.69333 13.1333 7.55467 13.56 7.384 14.008C7.23467 14.456 7.10667 14.8507 7 15.192C6.89333 15.512 6.84 15.7253 6.84 15.832C6.60533 16.1947 6.36 16.7493 6.104 17.496C5.848 18.2427 5.63467 19.3093 5.464 20.696C5.272 21.4213 5.13333 22.0293 5.048 22.52C4.96267 22.9893 4.87733 23.2133 4.792 23.192C4.792 23.192 4.78133 23.288 4.76 23.48C4.73867 23.6933 4.696 23.832 4.632 23.896C4.632 24.024 4.504 24.1093 4.248 24.152C3.992 24.1947 3.69333 24.1413 3.352 23.992C3.01067 23.8427 2.69067 23.5547 2.392 23.128C2.328 22.8933 2.27467 22.552 2.232 22.104C2.21067 21.6347 2.28533 21.0907 2.456 20.472C2.56267 20.0667 2.712 19.544 2.904 18.904C3.096 18.264 3.30933 17.6027 3.544 16.92C3.77867 16.2373 3.992 15.608 4.184 15.032C4.39733 14.456 4.54667 14.0293 4.632 13.752C4.78133 13.3893 4.99467 12.7067 5.272 11.704C5.44267 11.1493 5.61333 10.5947 5.784 10.04C5.976 9.48533 6.15733 8.99467 6.328 8.568C6.49867 8.12 6.616 7.832 6.68 7.704C6.78667 7.42667 6.91467 6.97867 7.064 6.36C7.23467 5.72 7.49067 4.99467 7.832 4.184L8.056 3.128L7.704 2.968C7.448 3.05333 7.24533 3.08533 7.096 3.064C6.968 3.02133 6.88267 2.98933 6.84 2.968C6.712 3.01067 6.54133 2.97867 6.328 2.872C6.136 2.744 5.95467 2.584 5.784 2.392C5.63467 2.2 5.53867 2.04 5.496 1.912C5.45333 1.82667 5.42133 1.72 5.4 1.592C5.4 1.44267 5.4 1.368 5.4 1.368C5.42133 1.24 5.60267 1.112 5.944 0.983999C6.28533 0.834665 6.72267 0.695999 7.256 0.567999C7.81067 0.439999 8.39733 0.343999 9.016 0.279999C9.63467 0.215998 10.2107 0.205332 10.744 0.247999C11.2987 0.290665 11.9813 0.418665 12.792 0.631998C13.6027 0.845332 14.296 1.05867 14.872 1.272C15.5547 1.528 16.2907 1.96533 17.08 2.584C17.8693 3.20267 18.584 3.93867 19.224 4.792C19.8853 5.64533 20.3227 6.54133 20.536 7.48C20.6 7.736 20.664 8.09867 20.728 8.568C20.792 9.03733 20.824 9.496 20.824 9.944C20.8453 10.3707 20.8027 10.648 20.696 10.776C20.6533 10.8613 20.6213 10.968 20.6 11.096C20.6 11.2027 20.6427 11.2773 20.728 11.32C20.7067 11.384 20.632 11.6293 20.504 12.056C20.376 12.4613 20.2587 12.8133 20.152 13.112C20.1093 13.6667 19.96 14.3067 19.704 15.032C19.4693 15.7573 19.2027 16.4507 18.904 17.112C18.6267 17.752 18.3813 18.2533 18.168 18.616C18.0827 18.616 17.9973 18.6373 17.912 18.68C17.848 18.7013 17.8587 18.7227 17.944 18.744C17.944 18.8507 17.8267 19.0533 17.592 19.352C17.5067 19.416 17.368 19.576 17.176 19.832C17.0053 20.0667 16.8667 20.2267 16.76 20.312C16.7387 20.4613 16.6747 20.5893 16.568 20.696C16.4613 20.7813 16.3653 20.824 16.28 20.824C16.28 20.824 16.2587 20.824 16.216 20.824C16.1947 20.824 16.184 20.8667 16.184 20.952C16.0133 21.208 15.7253 21.5387 15.32 21.944C14.9147 22.3493 14.456 22.7653 13.944 23.192C13.432 23.6187 12.92 24.0133 12.408 24.376C11.896 24.7387 11.4267 25.0053 11 25.176C10.7867 25.3253 10.5627 25.4427 10.328 25.528C10.0933 25.6347 9.86933 25.7413 9.656 25.848C9.54933 25.9333 9.24 26.008 8.728 26.072C8.216 26.136 7.672 26.1893 7.096 26.232C6.54133 26.2747 6.104 26.328 5.784 26.392ZM35.7483 3.096C35.9829 3.096 36.2603 3.26667 36.5803 3.608C36.9216 3.928 37.1349 4.28 37.2203 4.664C37.2203 4.83467 37.1669 5.03733 37.0603 5.272C36.9536 5.50667 36.6976 5.74133 36.2923 5.976C35.7589 6.40267 35.3109 6.776 34.9483 7.096C34.5856 7.416 34.2123 7.77867 33.8283 8.184C33.4656 8.568 32.9856 9.10133 32.3883 9.784L30.8843 11.16L31.0763 11.672C31.1616 11.8213 31.2896 12.0987 31.4603 12.504C31.6309 12.888 31.7589 13.1653 31.8443 13.336C32.0576 13.8053 32.2283 14.168 32.3563 14.424C32.5056 14.6587 32.6443 14.9253 32.7723 15.224C32.9003 15.5227 33.0709 16.0027 33.2843 16.664C33.5189 17.2187 33.7109 17.688 33.8603 18.072C34.0096 18.4347 34.0843 18.6587 34.0843 18.744C34.0843 18.744 34.1909 19.0213 34.4043 19.576C34.6176 20.1093 34.8416 20.696 35.0763 21.336C35.4603 22.2107 35.6629 22.904 35.6843 23.416C35.7056 23.9493 35.6096 24.3547 35.3963 24.632C35.2043 24.9307 34.9376 25.176 34.5963 25.368C34.4469 25.368 34.3296 25.368 34.2443 25.368C34.1589 25.368 34.1163 25.368 34.1163 25.368C34.1803 25.304 34.1376 25.208 33.9883 25.08C33.8603 24.9733 33.7109 24.8773 33.5403 24.792C33.3909 24.7067 33.2843 24.696 33.2203 24.76C33.1349 24.76 33.0816 24.7173 33.0603 24.632C33.0389 24.5467 32.9856 24.408 32.9003 24.216C32.9856 24.1307 32.9963 24.0133 32.9323 23.864C32.8896 23.7147 32.8256 23.5547 32.7403 23.384C32.7403 23.192 32.6763 22.9787 32.5483 22.744C32.4416 22.488 32.3456 22.2853 32.2603 22.136C32.2603 21.9653 32.2283 21.8053 32.1643 21.656C32.1216 21.5067 32.1003 21.432 32.1003 21.432C32.1003 21.3253 32.0683 21.1867 32.0043 21.016C31.9403 20.8453 31.8656 20.6853 31.7803 20.536C31.6949 20.3653 31.6203 20.1733 31.5563 19.96C31.4923 19.7253 31.4603 19.608 31.4603 19.608C31.3749 19.416 31.2683 19.1813 31.1403 18.904C31.0336 18.6053 30.8096 18.0187 30.4683 17.144C30.3829 16.9093 30.2763 16.664 30.1483 16.408C30.0203 16.152 29.9563 16.024 29.9563 16.024C29.8709 15.8533 29.7643 15.6613 29.6363 15.448C29.5296 15.2133 29.4763 15.0213 29.4763 14.872C29.4763 14.7867 29.4656 14.6907 29.4443 14.584C29.4443 14.456 29.4016 14.392 29.3163 14.392C29.3163 14.392 29.2843 14.3387 29.2203 14.232C29.1563 14.104 29.0816 13.9973 28.9963 13.912L28.8363 13.272L28.5803 13.88C28.4309 13.9653 28.3349 14.1253 28.2923 14.36C28.2709 14.5733 28.1749 14.7653 28.0043 14.936C27.3429 15.9173 26.7563 16.76 26.2443 17.464C25.7323 18.168 25.3909 18.5627 25.2203 18.648C25.3056 18.648 25.3163 18.712 25.2523 18.84C25.1883 18.968 25.0709 19.1173 24.9003 19.288C24.8149 19.3947 24.6976 19.576 24.5483 19.832C24.4203 20.0667 24.3136 20.2693 24.2283 20.44C24.1429 20.6747 24.0576 20.952 23.9723 21.272C23.8869 21.592 23.6309 22.0507 23.2043 22.648C23.0549 23.032 22.7883 23.2987 22.4043 23.448C22.0203 23.5973 21.7429 23.672 21.5723 23.672C21.3589 23.608 21.1669 23.3947 20.9963 23.032C20.8469 22.6693 20.7509 22.2747 20.7083 21.848C20.6656 21.4 20.6976 21.0373 20.8043 20.76C20.8896 20.6107 21.0496 20.3333 21.2843 19.928C21.5403 19.5227 21.8069 19.0853 22.0843 18.616C22.3829 18.1253 22.6496 17.6987 22.8843 17.336C23.1403 16.952 23.3109 16.7173 23.3963 16.632C23.3963 16.632 23.4603 16.536 23.5883 16.344C23.7376 16.152 23.8976 15.9813 24.0683 15.832C24.3456 15.448 24.5483 15.16 24.6763 14.968C24.8043 14.776 24.9216 14.584 25.0283 14.392C25.1349 14.2 25.2949 13.9227 25.5083 13.56C25.6789 13.3893 25.8709 13.176 26.0843 12.92C26.2976 12.6427 26.4789 12.4293 26.6283 12.28C26.7989 12.0453 26.9696 11.9173 27.1403 11.896C27.3109 11.8747 27.4389 11.7467 27.5243 11.512C27.6096 11.4053 27.6843 11.2987 27.7483 11.192C27.8123 11.0853 27.8443 10.9147 27.8443 10.68C27.8443 10.616 27.7696 10.4027 27.6203 10.04C27.4709 9.656 27.2683 9.19733 27.0123 8.664C26.7776 8.13067 26.5323 7.58667 26.2763 7.032C26.0203 6.47733 25.7749 5.976 25.5403 5.528C25.3056 5.08 25.1243 4.77067 24.9963 4.6C24.7616 4.17333 24.6336 3.704 24.6123 3.192C24.6123 2.68 24.8683 2.33867 25.3802 2.168C25.5509 2.104 25.7856 2.104 26.0843 2.168C26.3829 2.232 26.6603 2.328 26.9163 2.456C27.1936 2.584 27.3643 2.744 27.4283 2.936C27.5136 2.936 27.6309 3.07467 27.7803 3.352C27.9509 3.62933 28.1109 3.96 28.2603 4.344C28.3243 4.51467 28.4203 4.77067 28.5483 5.112C28.6763 5.432 28.8149 5.784 28.9643 6.168C29.1349 6.53067 29.2736 6.85067 29.3803 7.128L29.9883 8.664L30.8843 7.352C31.2043 6.98933 31.5349 6.62667 31.8763 6.264C32.2389 5.88 32.4949 5.63467 32.6443 5.528C32.8149 5.42133 32.9643 5.31467 33.0923 5.208C33.2203 5.08 33.2843 5.016 33.2843 5.016C33.2843 4.93067 33.3803 4.792 33.5723 4.6C33.7856 4.38667 34.0309 4.16267 34.3083 3.928C34.6069 3.69333 34.8843 3.50133 35.1403 3.352C35.4176 3.18133 35.6203 3.096 35.7483 3.096ZM44.2083 24.152C43.2696 24.28 42.2989 24.248 41.2963 24.056C40.2936 23.8853 39.4083 23.5333 38.6403 23C37.8936 22.488 37.3816 21.8053 37.1043 20.952C37.0189 20.7173 36.9443 20.504 36.8802 20.312C36.8376 20.12 36.8589 20.024 36.9443 20.024C37.1576 20.024 37.1683 19.9173 36.9763 19.704C36.9123 19.6187 36.8802 19.4267 36.8802 19.128C36.8802 18.808 36.9336 18.488 37.0403 18.168C37.1469 17.8267 37.3176 17.6027 37.5523 17.496C37.8083 17.368 38.0749 17.368 38.3523 17.496C38.6296 17.6027 38.8536 17.7413 39.0243 17.912C39.1949 18.0827 39.2376 18.2 39.1523 18.264C39.1523 18.264 39.1949 18.3813 39.2803 18.616C39.3656 18.8293 39.3869 19.0853 39.3443 19.384C39.5363 19.704 39.6536 19.9707 39.6963 20.184C39.7603 20.376 39.9949 20.5893 40.4003 20.824C40.6776 21.0373 40.8803 21.1973 41.0083 21.304C41.1363 21.4107 41.4669 21.4747 42.0003 21.496C42.3416 21.496 42.5763 21.4747 42.7043 21.432C42.8323 21.3893 42.9389 21.2827 43.0243 21.112C43.1309 20.9413 43.3123 20.6747 43.5683 20.312C43.6323 19.9067 43.5469 19.256 43.3123 18.36C43.0989 17.464 42.7789 16.4187 42.3523 15.224C41.9256 14.008 41.4136 12.7387 40.8163 11.416C40.6883 11.1813 40.5709 10.936 40.4643 10.68C40.3789 10.424 40.3363 10.296 40.3363 10.296C40.4003 9.89067 40.3789 9.51733 40.2723 9.176C40.1443 9.06933 40.0696 8.824 40.0483 8.44C40.0483 8.03467 40.0269 7.672 39.9843 7.352C40.0269 6.88267 40.0696 6.52 40.1123 6.264C40.1549 6.008 40.2936 5.70933 40.5283 5.368C41.1469 4.472 41.9896 3.672 43.0563 2.968C44.1229 2.24267 45.3496 1.77333 46.7363 1.56C46.9709 1.51733 47.3016 1.496 47.7283 1.496C48.1549 1.496 48.6029 1.51733 49.0723 1.56C49.5629 1.58133 50.0003 1.624 50.3843 1.688C50.7896 1.752 51.0669 1.816 51.2163 1.88C52.0483 2.24267 52.5816 2.69067 52.8163 3.224C53.0509 3.75733 53.1789 4.19467 53.2003 4.536C53.2216 4.792 53.2429 4.984 53.2643 5.112C53.3069 5.21867 53.3283 5.32533 53.3283 5.432C53.3283 5.51733 53.2643 5.66667 53.1363 5.88C53.0296 6.008 52.8056 6.18933 52.4643 6.424C52.1229 6.63733 51.7283 6.86133 51.2803 7.096C50.8536 7.33067 50.4269 7.544 50.0003 7.736C49.5736 7.90667 49.2216 8.01333 48.9443 8.056C48.7523 8.14133 48.6349 8.184 48.5923 8.184C48.5709 8.184 48.5603 8.14133 48.5603 8.056C48.6243 7.928 48.6349 7.832 48.5923 7.768C48.5709 7.704 48.5603 7.672 48.5603 7.672C48.2829 7.672 48.1443 7.55467 48.1443 7.32C48.1443 7.08533 48.3469 6.72267 48.7523 6.232C49.1363 5.80533 49.4349 5.4 49.6483 5.016C49.8616 4.632 49.9149 4.38667 49.8083 4.28C49.6803 4.19467 49.4563 4.13067 49.1363 4.088C48.8376 4.04533 48.4963 4.024 48.1123 4.024C47.7496 4.024 47.3976 4.056 47.0563 4.12C45.9896 4.44 45.1256 4.84533 44.4643 5.336C43.8243 5.80533 43.4189 6.40267 43.2483 7.128C43.0989 7.448 43.0669 7.77867 43.1523 8.12C43.2589 8.46133 43.3976 8.90933 43.5683 9.464C43.6109 9.99733 43.6536 10.4133 43.6963 10.712C43.7603 11.0107 43.7923 11.1813 43.7923 11.224C43.7923 11.3093 43.8029 11.4373 43.8243 11.608C43.8669 11.7573 43.8989 12.0347 43.9203 12.44C43.9629 12.5893 44.0696 12.792 44.2403 13.048C44.4109 13.2827 44.6989 13.5493 45.1043 13.848C45.1469 14.3173 45.2216 14.7227 45.3283 15.064C45.4563 15.384 45.5309 15.6933 45.5523 15.992C45.9789 16.8453 46.2669 17.688 46.4163 18.52C46.5656 19.3307 46.6189 20.0027 46.5763 20.536C46.5549 21.0693 46.4696 21.336 46.3203 21.336C46.2989 21.336 46.2883 21.368 46.2883 21.432C46.2883 21.496 46.2989 21.528 46.3203 21.528C46.3203 21.656 46.2349 21.8587 46.0643 22.136C45.9149 22.392 45.7229 22.6693 45.4883 22.968C45.2536 23.2667 45.0189 23.5227 44.7843 23.736C44.5496 23.9707 44.3576 24.1093 44.2083 24.152Z" fill="black"/>
</svg>
