<svg width="18" height="18" viewBox="0 0 18 18" fill="none" xmlns="http://www.w3.org/2000/svg">
<path d="M12.975 1.6125C15.3516 1.6125 17.2828 3.54844 17.2828 5.93906C17.2828 7.16719 16.7719 8.27344 15.9562 9.06094L9 16.0828L1.92188 8.93438C1.18125 8.15625 0.721875 7.10156 0.721875 5.93906C0.721875 3.54844 2.64844 1.6125 5.02969 1.6125C6.82031 1.6125 8.35313 2.70937 9.00469 4.275C9.64688 2.71406 11.1844 1.6125 12.975 1.6125ZM12.975 0.890625C11.3906 0.890625 9.9375 1.63125 9 2.85C8.0625 1.63125 6.60938 0.890625 5.025 0.890625C2.25469 0.890625 0 3.15469 0 5.93906C0 7.24687 0.496875 8.48906 1.40156 9.43594L8.48906 16.5938L9 17.1094L9.51094 16.5938L16.4625 9.57188C17.4469 8.62031 18 7.32656 18 5.93906C18 3.15469 15.7453 0.890625 12.975 0.890625Z" fill="black"/>
</svg>
